<svg version="1.2" xmlns="http://www.w3.org/2000/svg" viewBox="0 0 512 512" width="512" height="512">
	<title>file</title>
	<style>
		.s0 { fill: #000000 } 
	</style>
	<path id="Path 0" fill-rule="evenodd" class="s0" d="m255 71.17c59.14-0.07 102.54 0.29 107 0.86 4.13 0.54 11.32 1.93 16 3.1 4.68 1.17 12.55 3.78 17.5 5.8 4.95 2.02 12.76 5.9 17.35 8.62 4.6 2.72 12.46 8.32 17.47 12.45 5.01 4.13 12.5 11.61 16.65 16.64 4.14 5.02 9.67 12.67 12.28 17 2.62 4.32 6.52 12.14 8.68 17.36 2.16 5.22 4.85 13.1 5.98 17.5 1.13 4.4 2.74 12.61 3.57 18.25 1 6.76 1.52 17.74 1.52 32.25 0 14.42-0.54 25.88-1.56 33.25-0.85 6.19-2.24 13.95-3.09 17.25-0.84 3.3-2.45 8.7-3.58 12-1.13 3.3-4.08 10.05-6.55 15-2.47 4.95-6.77 12.38-9.56 16.5-2.79 4.13-8.91 11.49-13.61 16.37-4.7 4.87-12.22 11.62-16.7 15-4.48 3.37-12.13 8.23-17 10.79-4.87 2.56-12.9 6.07-17.85 7.79-4.95 1.73-13.27 4.08-18.5 5.23-8.57 1.89-13.58 2.14-92.5 2.97l-43.5 32.52c-23.93 17.89-44.96 33.16-46.75 33.93-1.79 0.77-4.94 1.39-7 1.39-2.06-0.01-5.75-1.02-8.19-2.25-2.44-1.23-5.45-3.81-6.68-5.74-1.24-1.93-2.52-5.07-2.84-7-0.39-2.22 1.04-12.43 3.91-28 2.49-13.48 4.41-24.54 4.28-24.58-0.12-0.05-6.3-0.59-13.73-1.21-7.43-0.62-17.78-2.21-23-3.54-5.22-1.33-13.1-3.84-17.5-5.59-4.4-1.74-11.6-5.24-16-7.77-4.4-2.53-11.15-6.96-15-9.85-3.85-2.89-10.84-9.24-15.54-14.11-4.7-4.87-10.53-11.78-12.95-15.35-2.43-3.57-5.94-9.2-7.81-12.5-1.87-3.3-4.89-9.6-6.72-14-1.82-4.4-4.28-11.82-5.47-16.5-1.18-4.68-2.79-13-3.56-18.5-0.88-6.21-1.41-18.54-1.41-32.5 0-14.53 0.52-26.22 1.48-33 0.82-5.78 2.41-14.1 3.55-18.5 1.13-4.4 3.61-11.82 5.51-16.5 1.91-4.68 5.27-11.65 7.47-15.5 2.21-3.85 6.35-10.15 9.2-14 2.86-3.85 8.83-10.6 13.27-15 4.45-4.4 11.66-10.55 16.03-13.67 4.37-3.12 12.45-7.91 17.95-10.65 5.5-2.74 14.28-6.32 19.5-7.97 5.22-1.64 12.65-3.49 16.5-4.11 3.85-0.61 8.13-1.27 9.5-1.47 1.38-0.2 47.28-0.41 102-0.46zm-121 33.95c-3.57 1.17-10.33 4.1-15 6.5-4.67 2.4-11.42 6.57-15 9.25-3.58 2.69-9.21 7.75-12.52 11.26-3.31 3.5-8.01 9.3-10.44 12.87-2.44 3.57-6.11 9.87-8.17 14-2.06 4.12-4.86 11.32-6.22 16-1.37 4.68-2.97 13.22-3.57 19-0.6 5.77-1.08 18.6-1.07 28.5 0.01 9.9 0.46 22.05 0.98 27 0.53 4.95 1.9 12.6 3.06 17 1.15 4.4 3.9 11.82 6.09 16.5 2.2 4.68 5.84 11.2 8.1 14.5 2.25 3.3 6.16 8.41 8.68 11.35 2.52 2.95 8.18 8.27 12.58 11.83 4.74 3.83 12.48 8.68 19 11.89 6.27 3.09 15.3 6.55 21 8.04 8.79 2.31 12.47 2.68 30.5 3.07 12.49 0.27 21.64 0.91 23.41 1.63 1.6 0.66 3.96 2.43 5.25 3.94 1.29 1.51 2.6 4.21 2.91 6 0.34 1.89-0.9 11.17-2.96 22.25-1.95 10.45-3.34 19.23-3.1 19.5 0.24 0.27 15.19-10.58 33.21-24.12 18.03-13.54 34.11-25.46 35.73-26.5 2.75-1.75 6.19-1.92 48.5-2.45 45.4-0.56 45.58-0.57 55.55-3.24 5.5-1.48 14.27-4.75 19.5-7.27 5.23-2.52 12.2-6.52 15.5-8.87 3.3-2.36 8.73-6.94 12.06-10.17 3.33-3.23 8.43-9.03 11.33-12.88 2.9-3.85 7.25-11.05 9.67-16 2.43-4.95 5.51-12.82 6.84-17.5 1.34-4.68 2.92-13.23 3.52-19 0.6-5.78 1.08-18.15 1.06-27.5-0.02-9.35-0.47-21.5-1.01-27-0.54-5.5-1.9-13.38-3.03-17.5-1.14-4.13-3.97-11.55-6.31-16.5-2.33-4.95-6.24-11.93-8.67-15.5-2.44-3.57-7.13-9.37-10.44-12.87-3.31-3.51-8.95-8.57-12.52-11.25-3.57-2.68-10.1-6.75-14.5-9.04-4.4-2.29-11.15-5.22-15-6.52-3.85-1.29-10.6-3.03-15-3.85-6.79-1.27-23.19-1.48-108.5-1.39-81.74 0.09-101.81 0.37-107.5 1.51-3.85 0.76-9.93 2.35-13.5 3.53zm37.91 93.9c3.2 0.01 7.3 0.8 9.59 1.83 2.2 0.99 5.57 3.62 7.5 5.83 1.93 2.22 4.06 5.78 4.73 7.93 0.68 2.14 1.24 5.58 1.25 7.64 0.01 2.06-0.68 5.44-1.54 7.5-0.86 2.06-2.66 5.21-4 7-1.34 1.79-4.24 4.15-6.44 5.25-2.2 1.1-5.91 2.29-8.25 2.65-2.59 0.4-6.18 0.1-9.18-0.75-3.02-0.86-6.64-2.95-9.32-5.4-2.42-2.2-5.08-5.8-5.91-8-0.96-2.5-1.4-6.27-1.18-10.07 0.28-5.01 0.94-6.91 3.82-10.95 2.04-2.86 5.53-6.05 8.41-7.69 3.79-2.15 6.21-2.78 10.52-2.77zm83.84 0c2.89-0.01 6.94 0.68 9 1.53 2.06 0.85 5.27 2.99 7.12 4.75 1.86 1.76 4.21 5 5.23 7.2 1.02 2.2 1.86 6.02 1.86 8.5 0 2.47-0.55 6.24-1.23 8.36-0.67 2.13-2.58 5.47-4.23 7.43-1.65 1.96-5.25 4.61-8 5.88-2.88 1.33-6.91 2.31-9.5 2.31-2.59 0-6.62-0.98-9.5-2.31-2.75-1.27-6.35-3.92-8-5.88-1.65-1.96-3.56-5.3-4.23-7.43-0.68-2.12-1.24-5.77-1.25-8.11-0.01-2.34 0.68-5.94 1.53-8 0.85-2.06 2.99-5.27 4.75-7.12 1.76-1.86 5-4.21 7.2-5.23 2.26-1.05 6.28-1.87 9.25-1.88zm84.25-0.03c4.15-0.04 6.85 0.64 11 2.79 4.09 2.1 6.27 4.09 8.5 7.71 2.27 3.69 3.08 6.35 3.34 10.94 0.22 3.8-0.22 7.57-1.18 10.07-0.83 2.2-3.5 5.8-5.92 8-2.42 2.2-6.17 4.56-8.32 5.23-2.16 0.68-5.49 1.22-7.42 1.21-1.93-0.02-5.09-0.57-7.03-1.23-1.94-0.67-5.29-2.56-7.44-4.21-2.29-1.76-4.87-5.07-6.21-8-1.27-2.75-2.3-6.8-2.29-9 0-2.2 0.56-5.75 1.24-7.89 0.67-2.15 2.8-5.71 4.73-7.93 1.93-2.21 5.3-4.84 7.5-5.83 2.21-1 6.46-1.83 9.5-1.86z"/>
</svg>