<svg version="1.2" xmlns="http://www.w3.org/2000/svg" viewBox="0 0 512 512" width="512" height="512">
	<title>file</title>
	<style>
		.s0 { fill: #000000 } 
	</style>
	<path id="Path 0" fill-rule="evenodd" class="s0" d="m219.75 51.09c4.54-0.05 11.51 0.53 15.5 1.29 3.99 0.76 10.18 2.57 13.75 4.01 3.57 1.44 8.92 4.08 11.87 5.87 2.95 1.78 8.35 5.98 12 9.32 3.65 3.35 8.95 9.2 11.79 13 2.83 3.81 6.96 10.29 9.17 14.42 2.21 4.12 5.57 12 7.47 17.5 1.9 5.5 3.96 12.59 4.58 15.75 0.62 3.16 1.46 5.73 1.87 5.71 0.41-0.03 2.77-1.77 5.25-3.87 2.48-2.1 6.98-5.4 10-7.32 3.02-1.93 8.76-5.14 12.75-7.14 3.99-1.99 11.19-4.78 16-6.19 5.79-1.7 12.3-2.75 19.25-3.1 7.55-0.39 12.61-0.1 18 1.04 4.13 0.87 11.1 3.36 15.5 5.54 4.4 2.18 10.68 6.12 13.95 8.77 3.27 2.65 8.45 7.79 11.5 11.42 3.05 3.64 7.57 10.16 10.05 14.5 2.47 4.34 5.94 11.49 7.7 15.89 1.76 4.4 3.95 10.7 4.86 14 0.91 3.3 1.89 11.18 2.17 17.5 0.44 9.66 0.17 12.86-1.65 20-1.19 4.68-3.48 11.2-5.09 14.5-1.62 3.3-5.31 9.12-8.21 12.94-2.91 3.81-8.43 9.59-12.28 12.83-3.85 3.25-11.05 8.3-16 11.22-4.95 2.93-12.82 6.9-17.5 8.83-4.68 1.92-12.1 4.52-16.5 5.76-4.4 1.24-8.36 2.51-8.81 2.83-0.44 0.33 3.61 3 9 5.94 5.4 2.94 13.63 7.88 18.31 10.98 4.68 3.09 12.77 9.06 18 13.25 5.23 4.2 13.49 11.86 18.37 17.02 4.87 5.17 11.89 13.45 15.59 18.4 3.71 4.95 9.03 12.82 11.83 17.5 2.81 4.68 7.1 12.77 9.55 18 2.45 5.23 5.19 11.75 6.1 14.5 1.41 4.28 1.46 5.57 0.35 8.96-0.83 2.56-2.53 4.81-4.79 6.34-2.85 1.93-4.34 2.27-8 1.83-2.81-0.34-5.36-1.41-6.79-2.84-1.25-1.26-3.66-5.67-5.34-9.79-1.68-4.13-5.09-11.32-7.59-16-2.5-4.68-7.29-12.52-10.66-17.44-3.37-4.92-9.75-13.02-14.18-18-4.44-4.98-11.42-11.88-15.5-15.33-4.09-3.44-11.49-9.17-16.44-12.73-4.95-3.55-14.93-9.51-22.17-13.23-7.25-3.72-13.42-6.54-13.72-6.27-0.3 0.27 1.01 4.89 2.92 10.25 1.91 5.36 4.46 14.36 5.68 20 1.84 8.54 2.2 13.33 2.16 28.75-0.03 16.84-0.28 19.4-2.72 28.5-1.47 5.5-4.65 14.05-7.06 19-2.41 4.95-6.83 12.15-9.83 16-2.99 3.85-8.78 9.54-12.85 12.65-4.08 3.1-9.77 6.81-12.66 8.25-2.89 1.43-9.19 3.8-14 5.27-7.91 2.42-10.28 2.68-24.75 2.69-13.39 0.01-17.31-0.34-24-2.17-4.4-1.2-11.15-3.74-15-5.65-3.85-1.9-9.32-5.39-12.16-7.75-2.83-2.36-7.03-6.54-9.32-9.29-2.29-2.75-5.93-8.49-8.09-12.75-2.16-4.26-4.83-11.01-5.93-15-1.1-3.99-2.48-12.2-3.07-18.25-0.78-7.99-0.76-14.01 0.06-22 0.62-6.05 1.74-13.93 2.5-17.5 0.75-3.57 1.18-6.73 0.95-7-0.23-0.27-5.48 2.05-11.68 5.16-6.19 3.12-15.98 7.25-21.76 9.18-5.77 1.92-15 4.46-20.5 5.64-6.6 1.41-15.45 2.34-26 2.72-13.27 0.49-17.37 0.28-24-1.2-4.4-0.99-11.82-3.73-16.5-6.09-4.67-2.36-11.42-6.7-15-9.64-3.57-2.94-8.75-8.11-11.5-11.49-2.75-3.38-6.46-8.53-8.24-11.46-1.79-2.93-4.43-8.25-5.88-11.82-1.44-3.57-3.5-9.88-4.58-14-1.36-5.21-1.98-11.01-2.03-19-0.05-8.66 0.47-13.72 2.13-20.5 1.22-4.95 3.9-12.6 5.96-17 2.06-4.4 5.74-10.93 8.16-14.5 2.42-3.57 8.02-10.27 12.44-14.88 4.42-4.6 10.52-10.28 13.54-12.6 3.03-2.33 8.88-6.49 13-9.25 4.13-2.76 11.1-6.81 15.5-9.01 4.4-2.2 11.38-5.15 15.5-6.55 4.13-1.41 10.43-3.1 14-3.76 3.57-0.66 7.06-1.37 7.75-1.58 0.75-0.22 1.03-1.28 0.71-2.62-0.3-1.24-1.65-6.97-3-12.75-1.35-5.78-2.74-15.45-3.08-21.5-0.38-6.66-0.18-13.96 0.52-18.5 0.63-4.13 2.25-10.88 3.6-15 1.34-4.13 4.26-10.31 6.47-13.75 2.22-3.44 5.72-8.11 7.78-10.39 2.06-2.27 6.45-6.04 9.75-8.38 3.3-2.33 8.7-5.58 12-7.22 3.3-1.64 8.93-3.95 12.5-5.13 3.57-1.18 9.65-2.78 13.5-3.54 3.85-0.77 10.71-1.44 15.25-1.5zm-20.75 28.05c-3.57 1.17-8.3 3.02-10.5 4.11-2.2 1.09-6.41 3.84-9.35 6.11-2.95 2.28-6.68 6.17-8.29 8.64-1.61 2.47-3.84 6.97-4.96 10-1.12 3.03-2.45 8.87-2.96 13-0.6 4.81-0.56 10.73 0.09 16.5 0.56 4.95 2.18 13.28 3.6 18.5 1.42 5.22 3.32 11.02 4.22 12.87 1.42 2.89 2.63 3.67 8.65 5.54 3.85 1.2 10.6 4.11 15 6.47 4.4 2.36 10.43 6.16 13.39 8.45 2.97 2.3 8.82 7.78 13 12.18 4.19 4.41 8.69 10.26 10 13 1.76 3.66 2.24 5.92 1.79 8.49-0.39 2.22-1.9 4.69-4.15 6.75-2.58 2.37-4.47 3.25-7.03 3.25-1.93 0-4.74-0.61-6.25-1.36-1.51-0.75-4.39-3.56-6.39-6.25-2-2.69-6.95-8.06-11-11.94-5.2-4.99-9.85-8.29-15.86-11.27-4.68-2.32-11.65-4.88-15.5-5.68-3.85-0.81-9.36-1.47-12.25-1.48-2.89-0.01-8.51 0.61-12.5 1.39-3.99 0.77-10.18 2.51-13.75 3.86-3.57 1.35-8.97 3.7-12 5.23-3.03 1.53-9.44 5.42-14.25 8.64-4.81 3.22-12.18 9.12-16.38 13.11-4.19 3.99-9.56 9.95-11.92 13.25-2.36 3.3-5.66 8.93-7.34 12.5-1.67 3.57-3.73 9.2-4.58 12.5-0.85 3.3-1.54 9.82-1.54 14.5 0 4.68 0.68 11.2 1.51 14.5 0.84 3.3 3.28 9.6 5.44 14 2.15 4.4 6.34 10.7 9.31 14 2.97 3.3 8.07 7.79 11.33 9.97 3.25 2.18 8.85 5.04 12.42 6.35 5.57 2.05 8.21 2.38 18.5 2.32 6.6-0.04 15.82-0.75 20.5-1.57 4.68-0.82 12.55-2.66 17.5-4.09 4.95-1.43 13.05-4.37 18-6.52 4.95-2.16 13.72-6.99 19.5-10.73 5.78-3.74 14.06-10.16 18.4-14.27 4.35-4.1 9.69-9.71 11.87-12.46 2.19-2.75 5.15-5.78 6.6-6.74 1.46-0.97 4.52-1.75 6.88-1.75 3.07-0.01 5.08 0.68 7.25 2.49 1.65 1.37 3.52 4.19 4.16 6.25 1.04 3.34 0.89 4.3-1.34 8.75-1.37 2.75-4.74 9.27-7.47 14.5-2.74 5.23-6.64 14.45-8.67 20.5-2.03 6.05-4.58 15.61-5.68 21.25-1.32 6.74-1.99 14.28-1.98 22 0.01 6.46 0.62 14.68 1.36 18.25 0.74 3.57 2.84 9.65 4.66 13.5 2 4.23 5.32 9.01 8.39 12.07 2.93 2.94 7.81 6.37 11.57 8.15 3.57 1.69 8.86 3.57 11.75 4.17 2.89 0.61 10.09 1.11 16 1.12 6.56 0 13.09-0.61 16.75-1.57 3.3-0.86 8.7-2.99 12-4.72 3.3-1.74 8.81-5.98 12.25-9.44 4.47-4.49 7.38-8.63 10.21-14.53 2.18-4.54 4.92-12.3 6.1-17.25 1.56-6.57 2.12-12.11 2.09-20.5-0.02-6.32-0.5-14.43-1.07-18-0.56-3.57-2.16-10.44-3.55-15.25-1.39-4.81-3.69-11.56-5.12-15-1.42-3.44-4.18-9.18-6.13-12.75-1.95-3.57-6.26-10.32-9.59-15-3.75-5.28-6.21-9.82-6.49-12-0.26-2.08 0.21-4.82 1.18-6.75 0.89-1.79 2.86-4.01 4.37-4.94 2.3-1.41 5.1-1.65 17.25-1.44 9.27 0.15 17.93-0.31 24-1.28 5.23-0.83 13.55-2.67 18.5-4.09 4.95-1.41 13.95-4.98 20-7.93 6.05-2.94 14.15-7.81 18-10.81 3.85-3 8.88-7.89 11.19-10.86 2.3-2.97 5.45-8.1 7-11.4 2.64-5.64 2.81-6.78 2.76-19-0.05-11.86-0.31-13.7-3.01-21-1.62-4.4-4.98-11.55-7.45-15.89-2.47-4.34-7.23-10.86-10.58-14.5-3.66-3.97-8.45-7.87-12-9.77-3.25-1.74-7.93-3.69-10.41-4.35-2.48-0.66-7.87-1.17-12-1.13-4.12 0.04-10.2 0.78-13.5 1.64-3.3 0.86-9.37 3.16-13.5 5.11-4.12 1.95-10.43 5.64-14 8.2-3.57 2.56-9.2 7.4-12.5 10.76-3.3 3.37-7.3 8.77-8.9 12.02-1.59 3.25-3.51 7.26-4.25 8.91-0.75 1.65-2.7 3.79-4.35 4.75-1.65 0.96-4.46 1.75-6.25 1.74-1.79 0-4.6-0.9-6.25-2-1.65-1.1-3.55-3.01-4.21-4.24-0.75-1.38-1.24-6.71-1.26-13.75-0.02-6.32-0.73-16-1.56-21.5-0.84-5.5-3.11-14.72-5.04-20.5-1.94-5.78-5.41-13.87-7.72-17.99-2.55-4.53-7.37-10.72-12.21-15.67-6.27-6.41-9.62-8.95-15.5-11.72-4.12-1.95-10.43-4.01-14-4.58-3.57-0.56-7.62-0.97-9-0.91-1.37 0.06-5.2 0.51-8.5 0.99-3.3 0.48-8.93 1.84-12.5 3.02z"/>
</svg>